<svg width="364" height="267" viewBox="0 0 364 267" fill="none" xmlns="http://www.w3.org/2000/svg">
<path fill-rule="evenodd" clip-rule="evenodd" d="M252.323 2.98992C291.287 -5.73156 327.384 4.61648 346.786 34.1741C366.187 63.7311 361.112 110.633 356.909 131.336C352.706 152.039 342.045 171.001 328.813 187.463C304.236 218.039 271.023 241.438 233.893 254.069C196.764 266.699 156.451 269.289 117.758 262.9C96.0522 259.315 28.1557 241.755 13.4992 188.763C-1.15721 135.771 -10.4329 90.48 21.3059 72.0825C53.0443 53.6844 75.0289 67.5222 90.7408 74.3267C164.147 106.117 213.361 11.712 252.323 2.98992Z" fill="#5685E0"/>
<path fill-rule="evenodd" clip-rule="evenodd" d="M307.189 52.6253C313.439 52.1423 320.176 52.4545 325.27 56.1091C330.363 59.7637 332.677 67.7891 328.494 72.4586C333.223 70.6099 338.78 73.7453 341.148 78.2361C343.517 82.7264 343.393 88.1066 342.681 93.1336C340.916 105.582 335.841 117.546 328.117 127.467C327.762 128.513 327.407 129.559 327.052 130.605C336.182 132.958 371.832 146.803 362.199 180.935C352.567 215.066 310.5 228.057 306.194 232.142C298.688 239.262 287.233 239.749 276.893 239.42C251.469 238.614 226.123 235.383 201.31 229.785C199.2 229.309 196.528 229.02 195.312 230.808C186.51 243.749 168.104 244.906 152.494 243.779C132.442 242.333 112.505 239.292 92.9348 234.694C81.8339 232.087 70.0452 228.456 63.1296 219.389C55.0675 208.819 55.9985 194.164 57.3069 180.935C52.0075 183.881 43.2185 185.477 30.9402 185.722C23.7106 184.248 19.2013 181.627 17.4117 177.86C9.22792 160.635 6.42159 138.439 16.6126 121.461C17.8368 119.422 19.2493 117.412 21.243 116.114C23.3562 114.738 25.9325 114.286 28.4448 114.063C38.3527 113.186 48.5184 115.498 57.0714 120.576C56.9953 92.7767 56.9186 64.9773 56.8426 37.1778C56.8383 35.5857 56.8601 33.8963 57.709 32.5493C58.9364 30.6016 61.4511 29.9978 63.7147 29.5751C84.3051 25.7315 105.129 23.1389 126.032 21.8173C132.863 21.3856 142.21 23.2863 142.241 30.13C142.36 56.3391 142.479 82.5483 142.599 108.757C142.627 114.996 143.028 114.474 145.95 112.666C144.113 112.857 144.523 109.741 145.915 108.527C151.113 103.996 158.687 103.829 165.582 103.899C181.005 104.058 196.427 104.215 211.849 104.373C226.792 104.526 244.713 106.421 251.478 119.746C251.281 115.786 254.871 112.049 258.836 112.085C263.159 112.125 266.776 108.374 268.038 104.238C269.299 100.102 268.743 95.6585 268.175 91.3718C261.203 84.621 259.378 73.1451 263.911 64.5643C268.445 55.9835 278.954 51.0235 288.46 52.9785C294.6 54.241 300.939 53.1077 307.189 52.6253ZM128.233 181.188C128.028 186.706 127.81 192.298 126.186 197.576L128.233 181.188ZM121.843 113.467C123.279 113.887 125.055 115.16 124.301 116.451C130.537 117.074 128.675 116.786 128.955 109.438C129.24 101.981 129.264 93.7367 124.382 88.0933C120.063 83.0995 113.018 81.5375 106.439 80.976C98.7612 80.3203 90.9997 80.6355 83.3994 81.9113C79.6911 82.5338 75.6742 83.6061 73.5224 86.6895C72.3178 88.4157 71.8747 90.547 71.5208 92.6216C70.1292 100.782 69.6944 109.105 70.2288 117.365C86.2154 109.927 104.92 108.515 121.843 113.467ZM260.585 168.25C260.976 167.855 261.568 167.759 262.118 167.684C264.315 167.381 266.512 167.079 268.709 166.777C263.667 164.5 260.611 159.09 259.698 153.634C258.785 148.178 259.677 142.599 260.577 137.14C257.352 140.729 257.585 146.144 258.007 150.951C258.932 161.471 260.195 168.645 260.585 168.25ZM219.104 220.07C219.537 218.665 221.007 217.91 222.085 216.909C224.023 215.108 224.743 212.384 225.376 209.814C227.561 200.933 229.76 191.944 229.732 182.798C229.727 180.86 229.628 178.87 230.269 177.042C230.911 175.213 232.519 173.56 234.456 173.551C236.5 173.54 236.987 170.706 236.805 168.671C236.175 161.655 235.545 154.638 234.915 147.622C234.714 145.38 234.509 143.119 233.829 140.973C231.314 133.044 221.624 128.249 213.795 131.061C212.837 131.405 212.581 132.615 212.472 133.628C211.267 144.851 210.062 156.075 208.857 167.298C208.642 169.292 211.217 170.565 213.161 170.071C215.105 169.577 216.589 168.059 218.269 166.964C219.95 165.87 222.319 165.24 223.863 166.521C225.607 167.969 228.189 166.36 229.704 164.674C231.22 162.989 233.193 160.956 235.348 161.66C232.82 164.077 230.292 166.495 227.764 168.913C226.926 169.715 226.187 171.317 227.246 171.79C230.15 170.76 232.776 168.955 234.778 166.612C235.703 166.582 235.747 168.036 235.23 168.804C233.285 171.701 228.704 172.345 227.525 175.629C224.772 183.294 216.188 188.385 208.142 187.124C206.491 186.866 205.669 189.037 205.47 190.696C204.678 197.31 203.886 203.923 203.094 210.537C202.912 212.058 202.742 213.668 203.368 215.066C204.413 217.399 207.209 218.282 209.687 218.91C212.963 219.74 216.277 220.574 219.626 220.937C221.036 221.09 221.03 220.573 219.104 220.07ZM88.5846 207.944C93.2657 209.512 98.2202 210.044 103.13 210.565C105.211 210.786 107.428 210.984 109.296 210.038C111.494 208.925 112.665 206.512 113.611 204.236C118.884 191.545 121.894 177.918 122.458 164.187C122.538 162.236 120.041 161.374 118.092 161.243C102.538 160.199 87.6621 167.037 73.5749 173.714C72.8999 174.034 72.1771 174.399 71.8439 175.068C71.5951 175.567 71.6078 176.15 71.6265 176.706C71.8789 184.292 72.1971 192.15 75.5897 198.94C76.5062 200.773 77.6715 202.538 79.3216 203.754C80.3208 204.491 81.465 205.002 82.5994 205.507C84.5677 206.384 86.5409 207.26 88.5846 207.944ZM189.207 179.87C191.281 168.72 192.742 157.456 193.582 146.146C193.87 142.276 194.08 138.343 193.244 134.555C192.407 130.766 190.39 127.083 187.091 125.041C185.058 123.783 182.678 123.218 180.324 122.799C176.029 122.032 171.66 121.685 167.298 121.762C163.449 121.83 159.408 122.299 156.266 124.524C155.227 125.259 154.283 126.222 153.904 127.437C153.524 128.652 153.844 130.145 154.898 130.859C157.562 132.664 158.648 136.039 159.147 139.218C159.647 142.396 159.767 145.725 161.215 148.598C161.962 150.08 163.033 151.373 164.157 152.594C170.247 159.216 178.192 164.115 186.843 166.584C188.364 167.018 190.299 167.958 189.978 169.506C194.762 172.525 189.128 180.298 189.207 179.87ZM176.021 212.756C177.782 211.686 178.977 209.904 180.029 208.132C184.49 200.609 187.416 192.179 188.574 183.51C172.526 183.437 156.573 177.383 144.518 166.788C144.106 168.444 144.185 170.177 144.241 171.882C144.593 182.53 143.961 193.21 142.356 203.742C141.974 206.252 143.474 208.762 145.535 210.245C147.597 211.728 150.137 212.365 152.631 212.845C158.253 213.928 163.998 214.372 169.719 214.166C171.894 214.087 174.16 213.887 176.021 212.756ZM277.291 120.914C276.356 118.659 275.654 116.117 273.713 114.637C271.772 113.157 268.118 113.882 268.004 116.32C269.924 115.966 271.393 118.337 271.066 120.262C270.738 122.188 269.338 123.718 268.226 125.324C266.689 127.542 265.639 130.054 264.599 132.544C262.125 138.468 261.162 145.017 261.826 151.403C262.217 155.163 263.247 159.025 265.79 161.822C268.332 164.62 272.69 166.018 276.039 164.268C278.917 162.764 280.352 159.448 281.012 156.269C281.672 153.09 281.789 149.763 283.036 146.765C285.336 141.235 291.007 137.894 296.617 135.797C288.184 134.651 280.553 128.775 277.291 120.914ZM253.97 126.896C254.345 128.346 254.864 129.758 255.517 131.105C255.91 129.207 256.539 127.357 257.387 125.613C256.529 125.516 255.666 125.469 254.803 125.474C254.593 125.475 254.371 125.483 254.194 125.595C253.796 125.848 253.851 126.439 253.97 126.896ZM152.315 125.403C151.784 125.831 151.472 126.751 152.033 127.139C152.891 126.279 153.75 125.419 154.608 124.56C154.431 124.34 154.173 124.186 153.895 124.135C153.554 124.726 152.846 124.976 152.315 125.403Z" fill="white"/>
<path d="M300.98 119.245C302.814 119.245 304.301 117.758 304.301 115.924C304.301 114.09 302.814 112.603 300.98 112.603C299.146 112.603 297.659 114.09 297.659 115.924C297.659 117.758 299.146 119.245 300.98 119.245Z" fill="#F8BC37"/>
<path d="M281.961 115.924C282.962 115.924 283.773 115.113 283.773 114.113C283.773 113.112 282.962 112.302 281.961 112.302C280.961 112.302 280.15 113.112 280.15 114.113C280.15 115.113 280.961 115.924 281.961 115.924Z" fill="#F8BC37"/>
<path fill-rule="evenodd" clip-rule="evenodd" d="M110.445 68.2733C115.879 68.3077 121.313 68.3421 126.747 68.3765C127.001 68.3783 127.274 68.3856 127.48 68.5359C127.899 68.8438 127.731 69.5647 127.3 69.8545C126.869 70.1443 126.309 70.1323 125.789 70.1142C121.007 69.9481 116.211 70.1969 111.472 70.8556C110.751 70.9558 109.991 71.0609 109.316 70.7874C108.642 70.5133 108.127 69.706 108.437 69.0479C108.761 68.3602 109.685 68.2684 110.445 68.2733ZM92.2742 67.7395C92.6184 68.0825 92.4535 68.7128 92.0707 69.0129C91.6885 69.313 91.1759 69.3727 90.6923 69.4216C85.8748 69.9095 81.0573 70.3973 76.2404 70.8852C75.6705 70.9431 75.0812 70.9987 74.5366 70.823C73.9914 70.6479 73.4981 70.1764 73.4854 69.604C73.4722 69.0135 73.9733 68.5118 74.5336 68.3234C75.0933 68.135 75.7013 68.1875 76.2906 68.234C81.2264 68.6222 86.2105 68.3982 91.0914 67.5693C91.5008 67.4992 91.9802 67.4467 92.2742 67.7395ZM91.5992 58.4922C91.959 58.7826 91.831 59.4051 91.47 59.6943C91.1089 59.9835 90.6175 60.0312 90.1562 60.0674L74.6851 61.2882C74.1061 61.3335 73.506 61.377 72.9602 61.1796C72.4137 60.9815 71.9343 60.4725 71.9657 59.8923C71.9977 59.3048 72.5405 58.849 73.1123 58.7101C73.6841 58.5713 74.283 58.6751 74.8651 58.7614C80.1161 59.5373 85.4552 58.8297 90.7412 58.3491C91.0377 58.3219 91.3673 58.305 91.5992 58.4922ZM113.206 55.4268C116.434 55.8392 119.706 55.902 122.948 55.614C124.237 55.4993 125.794 55.4455 126.526 56.5118C125.657 57.2146 124.463 57.3142 123.348 57.3849C119.651 57.6173 115.955 57.8504 112.258 58.0834C111.415 58.1365 110.364 58.0725 110.017 57.3027C109.705 56.6114 110.253 55.78 110.958 55.5005C111.663 55.2203 112.453 55.3308 113.206 55.4268ZM85.3182 51.4751C85.3218 52.033 84.622 52.2739 84.0696 52.3554L75.9458 53.5461C75.3656 53.6312 74.7666 53.7151 74.2003 53.5636C73.634 53.4126 73.1045 52.9622 73.0519 52.3784C72.9867 51.6641 73.6575 51.0609 74.3579 50.9052C75.0583 50.7494 75.784 50.9124 76.4958 51.0042C78.9496 51.32 81.425 50.7808 83.8981 50.6957C84.5031 50.6751 85.3133 50.8695 85.3182 51.4751ZM124.518 49.5304C125.147 49.6004 125.792 49.9754 125.96 50.5852C124.843 51.4298 123.368 51.5832 121.974 51.707C119.588 51.9183 117.201 52.1296 114.815 52.3415C113.974 52.4158 113.133 52.4907 112.293 52.5649C111.678 52.6193 111.039 52.6706 110.461 52.4526C109.884 52.2347 109.391 51.6617 109.477 51.0507C109.612 50.0877 110.876 49.8377 111.848 49.8582C115.456 49.9361 119.108 50.4807 122.643 49.7544C123.262 49.627 123.89 49.4597 124.518 49.5304ZM127.687 40.4207C110.005 42.805 91.8751 41.5703 74.4358 45.3426C73.4015 45.566 71.9579 45.5775 71.6904 44.5535C71.7146 43.3472 73.2747 42.9118 74.478 42.8261C91.4434 41.6161 108.408 40.4062 125.373 39.1962C126.369 39.125 127.765 39.4263 127.687 40.4207Z" fill="#E7EAEE"/>
<path fill-rule="evenodd" clip-rule="evenodd" d="M65.4863 223.715C65.6711 225.854 62.7222 226.579 60.5746 226.587C49.4151 226.631 38.2665 228.701 27.8351 232.666C26.243 233.271 24.5391 234.033 23.7645 235.55C22.7381 237.558 23.8581 240.128 25.673 241.466C27.4886 242.805 29.8052 243.213 32.0313 243.575C89.889 252.997 148.607 257.126 207.214 255.896L208.156 255.875C214.916 255.72 221.814 255.356 228.006 252.68C222.88 249.087 217.754 245.494 212.627 241.901C221.501 240.128 230.658 241.391 239.663 242.28C260.274 244.315 281.082 244.356 301.7 242.404C300.249 244.724 297.057 245.046 294.322 245.104C268.386 245.663 242.417 244.741 216.586 242.346C219.956 244.564 223.326 246.782 226.696 249C227.918 249.803 229.269 250.824 229.339 252.284C229.445 254.479 226.749 255.573 224.581 255.932C217.388 257.12 210.07 257.31 202.78 257.416C145.845 258.249 88.8396 254.175 32.6019 245.254C29.8578 244.819 27.0146 244.333 24.7263 242.757C22.438 241.181 20.8783 238.184 21.8397 235.577C22.796 232.984 25.7062 231.767 28.3332 230.908C40.3549 226.982 52.8675 224.559 65.4863 223.715ZM142.241 30.13C142.36 56.3391 142.479 82.5483 142.599 108.757C142.627 114.996 143.856 122.889 149.889 124.478C158.224 120.63 167.62 119.11 176.745 120.133C181.968 120.719 187.391 122.298 190.928 126.186C195.778 131.52 195.785 139.554 195.265 146.745C194.209 161.321 192.13 175.822 189.048 190.108C191.496 189.953 193.994 190.936 195.681 192.717C193.083 193.905 189.987 193.956 187.352 192.851C189.162 202.663 181.168 212.342 171.596 215.153C162.023 217.964 151.635 215.313 142.633 211.012C141.789 214.299 146.187 216.231 149.545 216.727C158.069 217.987 166.592 219.247 175.116 220.506C164.589 220.823 154.028 219.961 143.692 217.943C141.789 220.638 146.099 223.36 149.356 223.887C157.996 225.285 166.636 226.683 175.276 228.081C165.517 228.016 155.762 227.366 146.082 226.134C152.239 231.688 160.643 234.674 168.923 234.25C164.252 235.786 159.062 235.694 154.449 233.992C160.22 241.721 172.028 243.153 180.651 238.83C189.274 234.507 194.904 225.663 197.659 216.418C200.413 207.174 200.68 197.404 201.168 187.77C202.069 169.988 203.791 152.229 206.906 134.698C209.004 122.893 214.157 108.817 226.03 107.148C204.877 106.173 183.702 105.648 162.527 105.571C156.092 105.548 148.099 106.601 145.95 112.666C144.113 112.857 144.523 109.741 145.915 108.527C151.113 103.996 158.687 103.829 165.582 103.899L211.85 104.373C226.792 104.526 244.713 106.421 251.478 119.746C251.281 115.786 254.871 112.049 258.836 112.085C263.159 112.125 266.776 108.374 268.038 104.238C269.3 100.102 268.743 95.6585 268.175 91.3718C261.203 84.621 259.378 73.1451 263.912 64.5643C265.194 62.1371 267.089 56.35 277.67 52.6253C284.724 50.142 291.697 50.4149 298.589 53.444C311.531 50.9414 320.425 51.8302 325.27 56.1091C332.538 62.5284 332.677 67.7891 328.495 72.4586C333.223 70.6099 338.78 73.7453 341.148 78.2361C343.517 82.7264 343.393 88.1066 342.681 93.1336C340.916 105.582 335.841 117.546 328.117 127.467L327.052 130.605C345.737 135.422 360.853 151.937 364 170.974C357.788 156.972 349.379 142.144 334.89 137.173C331.62 140.602 328.259 144.181 326.723 148.663C325.188 153.145 326.017 158.809 329.91 161.51C327.465 162.076 325.02 162.643 322.575 163.21C323.389 164.653 324.202 166.097 325.016 167.541C315.777 174.565 314.714 187.851 314.77 199.457C314.826 211.064 314.615 224.153 306.194 232.142C298.688 239.262 287.233 239.749 276.893 239.42C251.469 238.614 226.123 235.383 201.31 229.785C199.201 229.309 196.528 229.02 195.312 230.808C186.51 243.749 168.104 244.906 152.494 243.779C132.442 242.333 112.506 239.292 92.935 234.694C81.834 232.087 70.0454 228.456 63.1298 219.389C55.0676 208.819 55.9986 194.164 57.307 180.935C49.3584 185.354 39.9353 187.065 30.9403 185.722C40.4219 179.523 45.0197 167.664 45.106 156.336C45.1923 145.009 41.4115 134.029 37.2044 123.511C27.9359 128.887 23.0593 140.219 23.785 150.909C24.5101 161.599 30.182 171.521 37.7919 179.064C28.4105 173.144 22.2031 162.478 21.6893 151.397C21.1755 140.315 26.3698 129.121 35.1625 122.358C33.7575 117.553 26.5086 116.966 22.7091 120.226C18.9099 123.486 17.7175 128.777 16.7403 133.688C14.9344 142.76 13.1212 152.044 14.4333 161.201C15.7453 170.358 20.8035 179.524 29.2793 183.229C25.3186 186.084 20.0425 181.974 17.4119 177.86C6.74393 161.177 6.42175 138.439 16.6128 121.461C17.837 119.422 19.2495 117.412 21.2431 116.114C23.3563 114.738 25.9326 114.286 28.4449 114.063C38.3528 113.186 48.5185 115.498 57.0722 120.576C56.9955 92.7767 56.9194 64.9773 56.8427 37.1778C56.8385 35.5857 56.8602 33.8963 57.7091 32.5493C58.9366 30.6016 61.4513 29.9978 63.7148 29.5751C84.3053 25.7315 105.129 23.1389 126.033 21.8173C132.863 21.3856 142.211 23.2863 142.241 30.13ZM128.28 23.4921C106.117 24.5355 84.0342 27.2754 62.2881 31.6799C61.3625 31.8671 60.3826 32.0862 59.71 32.7486C58.7935 33.6512 58.7229 35.0815 58.7108 36.3676C58.4512 64.0487 58.5611 91.7328 59.0398 119.41C61.7013 118.747 64.3627 118.083 67.0235 117.42C65.9832 111.741 64.9387 105.984 65.3837 100.227C65.8281 94.4703 67.9406 88.6161 72.286 84.8136C76.9888 80.6983 83.5518 79.5354 89.7857 79.0977C95.7799 78.6769 101.811 78.7747 107.789 79.3887C113.891 80.016 120.32 81.3715 124.722 85.6432C131.081 91.8143 131.185 101.812 130.855 110.666C129.981 134.174 129.107 157.681 128.233 181.188C128.028 186.706 127.811 192.298 126.186 197.576C124.563 202.853 121.339 207.869 116.463 210.459C111.677 213 105.951 212.928 100.567 212.317C95.4273 211.732 90.337 210.713 85.3679 209.274C82.3497 208.4 79.3296 207.347 76.7642 205.532C68.2763 199.525 67.2729 187.539 67.0664 177.142C63.8072 176.554 60.6211 179.035 59.2753 182.061C57.9301 185.087 57.9893 188.525 58.0732 191.836C58.2815 200.095 58.6033 208.766 62.8195 215.871C69.3245 226.832 82.9872 230.882 95.4624 233.5C117.604 238.146 140.085 241.175 162.668 242.557C152.589 237.424 143.654 228.639 141.529 217.53C140.951 214.513 140.89 211.424 140.829 208.352C139.652 148.289 138.476 88.2273 137.299 28.1647C137.225 24.3664 132.075 23.3134 128.28 23.4921ZM214.195 122.103C213.635 123.471 213.227 124.987 213.601 126.417C213.974 127.847 215.363 129.095 216.82 128.853C223.349 127.765 230.387 130.981 233.838 136.628C236.685 141.288 237.081 146.989 237.401 152.44L240.321 202.097C240.633 207.404 240.787 213.244 237.489 217.412C233.21 222.821 225.175 223.001 218.311 222.33C212.647 221.776 206.689 220.834 202.292 217.221C202.448 219.324 201.835 221.475 200.594 223.18C199.063 225.284 201.535 228.053 203.94 229.048C206.876 230.263 210.07 230.687 213.223 231.095C227.659 232.969 242.105 234.777 256.559 236.517C267.685 237.856 278.988 239.153 290.048 237.355C283.051 235.392 276.355 232.357 270.266 228.39C267.229 226.41 264.291 224.149 262.219 221.173C258.838 216.316 258.124 210.144 257.562 204.252C255.889 186.731 254.643 169.171 253.827 151.59C253.225 138.622 249.067 125.837 241.925 114.997C240.648 113.058 239.086 111.047 236.829 110.507C227.853 108.361 217.698 113.565 214.195 122.103ZM173.036 234.32C173.798 234.449 174.579 234.62 175.207 235.07C175.834 235.52 176.272 236.32 176.079 237.067C175.885 237.815 174.898 238.307 174.275 237.851C173.587 237.348 172.671 237.331 171.852 237.099C171.032 236.867 170.172 236.186 170.319 235.347C170.506 234.283 171.971 234.139 173.036 234.32ZM141.424 234.636C142.368 234.832 143.474 235.505 143.28 236.451C143.11 237.285 142.079 237.562 141.235 237.675C140.29 237.801 139.281 237.918 138.423 237.503C137.565 237.087 137.008 235.914 137.571 235.145C137.95 234.626 138.661 234.487 139.304 234.461C140.014 234.432 140.728 234.491 141.424 234.636ZM197.942 224.13C197.045 224.776 196.429 225.729 195.797 226.636C192.912 230.768 189.256 234.36 185.075 237.171C185.179 237.615 185.844 237.503 186.238 237.274C191.08 234.469 194.536 229.833 197.853 225.326C198.124 224.957 198.348 224.34 197.942 224.13ZM241.242 112.495C243.826 115.546 246.429 118.626 248.32 122.148C250.368 125.968 251.52 130.2 252.447 134.433C257.631 158.118 256.247 182.742 259.607 206.753C260.214 211.086 261.015 215.51 263.27 219.26C265.911 223.652 270.293 226.697 274.759 229.213C278.37 231.248 282.139 233.035 286.106 234.24C292.413 236.156 299.989 236.291 304.824 231.81C307.538 229.294 308.966 225.704 310.082 222.174C314.863 207.046 315.389 190.598 311.584 175.195C311.679 184.408 312.876 193.598 312.602 202.806C312.328 212.014 310.438 221.497 305.025 228.951C303.953 230.428 302.709 231.845 301.089 232.684C298.955 233.79 296.419 233.768 294.034 233.477C289.867 232.968 285.792 231.709 282.065 229.779C279.234 228.311 276.614 226.469 274.076 224.538C271.125 222.295 268.228 219.878 266.161 216.802C264.112 213.752 262.97 210.19 262.064 206.629C255.45 180.633 260.179 152.591 252.331 126.939C250.481 120.894 247.268 114.408 241.242 112.495ZM83.4485 226.862C98.7173 229.219 113.987 231.576 129.255 233.933C128.869 234.943 127.473 234.978 126.401 234.835C113.342 233.091 100.284 231.347 87.2257 229.602C85.7495 229.405 84.2733 229.207 82.7964 229.011C82.0961 228.916 81.226 228.663 81.1373 227.962C81.0123 226.973 82.4638 226.711 83.4485 226.862ZM260.578 137.14C257.352 140.729 257.585 146.144 258.007 150.951C258.932 161.471 259.857 171.992 260.781 182.513C260.825 183.006 260.877 183.524 261.166 183.925C261.638 184.581 262.551 184.695 263.357 184.752C274.335 185.525 285.313 186.299 296.291 187.073C295.47 188.37 293.62 188.389 292.089 188.271C281.754 187.473 271.377 187.214 261.015 187.497C260.837 192.811 261.62 198.155 263.316 203.194C264.05 205.379 266.88 205.844 269.183 205.937C277.964 206.293 286.744 206.648 295.526 207.004C295.93 207.914 294.511 208.482 293.515 208.47C284.49 208.366 275.464 208.263 266.438 208.159C265.202 208.145 264.754 209.896 265.221 211.041C266.438 214.034 270.315 214.679 273.539 214.88L293.719 216.144C294.179 216.173 294.275 216.897 293.939 217.213C293.603 217.529 293.09 217.538 292.629 217.528L269.002 217.027C275.111 224.298 283.679 229.463 292.96 231.473C294.96 231.906 297.08 232.19 299.023 231.549C301.348 230.781 303.063 228.807 304.405 226.759C311.524 215.898 311.05 201.925 310.323 188.959L309.498 174.264C309.786 173.868 310.378 173.73 310.811 173.96C310.978 173.24 310.041 172.811 309.313 172.678C293.254 169.729 276.775 166.774 260.703 169.655C260.189 169.444 260.195 168.645 260.585 168.25C260.976 167.855 261.568 167.759 262.118 167.684C264.316 167.381 266.513 167.079 268.709 166.777C263.667 164.5 260.611 159.09 259.698 153.634C258.786 148.178 259.677 142.599 260.578 137.14ZM181.648 226.477C183.079 226.743 184.731 227.18 185.288 228.523C183.696 229.609 181.605 229.498 179.684 229.344C179.155 229.302 178.578 229.238 178.206 228.859C177.549 228.189 178.04 226.955 178.885 226.548C179.73 226.142 180.726 226.305 181.648 226.477ZM72.7086 216.66C89.1596 221.829 106.207 225.097 123.403 226.378C124.737 226.478 126.53 227.113 126.273 228.426C108.087 226.37 90.0115 223.33 72.1526 219.324C71.0132 219.069 69.5509 218.257 69.9754 217.169C70.3485 216.213 71.7299 216.352 72.7086 216.66ZM132.964 224.638C133.804 224.636 134.615 224.924 135.399 225.223C135.799 225.375 136.239 225.571 136.393 225.969C136.724 226.818 135.553 227.424 134.657 227.587C134.054 227.696 133.45 227.806 132.847 227.915C132.339 228.008 131.791 228.095 131.323 227.876C130.562 227.52 130.365 226.422 130.801 225.704C131.237 224.986 132.123 224.64 132.964 224.638ZM210.43 222.825C217.706 224.209 225.16 224.287 232.567 224.361C233.14 224.367 233.294 225.269 232.885 225.67C232.476 226.071 231.836 226.089 231.263 226.077C224.349 225.942 217.426 225.213 210.532 225.756C209.781 225.815 209.002 225.886 208.297 225.622C207.592 225.358 206.991 224.645 207.125 223.905C207.24 223.266 207.863 222.819 208.5 222.696C209.137 222.572 209.792 222.704 210.43 222.825ZM226.869 108.75C218.63 109.98 211.708 117.313 210.955 125.609C210.251 133.358 208.112 140.893 206.59 148.523C201.701 173.025 203.184 198.418 198.861 223.027C200.44 220.152 200.866 216.806 201.264 213.55L211.745 127.712C212.024 125.428 212.309 123.118 213.13 120.968C215.372 115.093 221.168 111.402 226.869 108.75ZM189.407 219.923C189.856 220.066 190.316 220.253 190.615 220.617C190.914 220.98 190.989 221.568 190.663 221.907C190.416 222.163 190.029 222.208 189.675 222.24C188.517 222.342 187.359 222.445 186.201 222.547C185.576 222.602 184.93 222.655 184.335 222.458C183.739 222.26 183.201 221.744 183.184 221.117C183.155 220.054 184.466 219.52 185.527 219.45C186.835 219.365 188.158 219.527 189.407 219.923ZM213.796 131.061C212.837 131.405 212.581 132.615 212.472 133.628L208.857 167.298C208.642 169.292 211.217 170.565 213.162 170.071C215.105 169.577 216.589 168.059 218.27 166.964C219.95 165.87 222.32 165.24 223.863 166.521C225.607 167.969 228.189 166.36 229.704 164.674C231.22 162.989 233.193 160.956 235.348 161.66C232.82 164.077 230.292 166.495 227.764 168.913C226.926 169.715 226.187 171.317 227.246 171.79C230.15 170.76 232.776 168.955 234.778 166.612C235.703 166.582 235.747 168.036 235.231 168.804C233.285 171.701 228.704 172.345 227.525 175.629C224.773 183.294 216.188 188.385 208.142 187.124C206.492 186.866 205.669 189.037 205.47 190.696C204.678 197.31 203.886 203.923 203.094 210.537C202.912 212.058 202.742 213.668 203.368 215.066C204.414 217.399 207.209 218.282 209.687 218.91C214.343 220.09 219.075 221.277 223.875 221.108C228.674 220.939 233.637 219.222 236.677 215.504C235.835 214.411 233.96 215.812 232.734 215.18C231.535 214.561 232.172 212.502 233.459 212.096C234.747 211.691 236.106 212.335 237.302 212.96C238.053 211.495 238.825 209.927 238.67 208.287C238.516 206.648 237.011 205.027 235.406 205.395C234.352 205.638 233.922 203.81 234.772 203.14C235.622 202.471 236.844 202.688 237.897 202.938C237.955 198.981 238.014 195.025 238.073 191.068C238.084 190.261 238.087 189.413 237.704 188.702C237.321 187.991 236.413 187.493 235.686 187.844C234.694 188.321 233.835 186.633 234.498 185.755C235.162 184.877 236.415 184.763 237.515 184.725C237.6 181.211 237.372 177.689 236.837 174.215C232.695 176.29 231.971 181.766 231.553 186.379C230.752 195.227 229.14 204.001 226.745 212.556C226.208 214.472 225.605 216.432 224.351 217.978C223.097 219.523 221.031 220.573 219.105 220.07C219.537 218.665 221.008 217.91 222.085 216.909C224.023 215.108 224.743 212.384 225.376 209.814C227.561 200.933 229.76 191.944 229.732 182.798L229.728 182.184C229.714 180.443 229.696 178.677 230.27 177.042C230.911 175.213 232.519 173.56 234.457 173.551C236.5 173.54 236.988 170.706 236.805 168.671C236.175 161.655 235.545 154.638 234.915 147.622C234.714 145.38 234.509 143.119 233.829 140.973C231.315 133.044 221.625 128.249 213.796 131.061ZM244.625 216.636C245.585 216.894 246.518 217.881 246.118 218.792C245.737 219.662 244.541 219.71 243.595 219.62C243.133 219.577 242.64 219.521 242.279 219.229C241.646 218.717 241.735 217.631 242.328 217.073C242.921 216.515 243.839 216.425 244.625 216.636ZM129.226 215.664C129.857 215.8 130.516 215.984 130.97 216.444C131.424 216.904 131.575 217.724 131.123 218.187C130.754 218.565 130.159 218.571 129.632 218.553C128.873 218.527 128.114 218.499 127.355 218.473C126.915 218.458 126.446 218.432 126.092 218.17C125.339 217.609 125.669 216.295 126.479 215.819C127.289 215.342 128.308 215.464 129.226 215.664ZM70.7512 208.778C74.9993 210.754 79.6671 211.616 84.2829 212.42C93.6269 214.048 102.999 215.514 112.394 216.817C113.708 217 115.165 217.258 115.966 218.317C112.328 218.565 108.692 217.959 105.096 217.355C93.2405 215.365 81.3854 213.374 69.5304 211.383C68.2878 211.175 66.6836 210.484 66.9257 209.248C67.2125 207.782 69.3969 208.148 70.7512 208.778ZM144.518 166.788C144.106 168.444 144.185 170.177 144.241 171.882C144.593 182.53 143.961 193.21 142.356 203.742C141.974 206.252 143.474 208.762 145.536 210.245C147.597 211.728 150.137 212.365 152.631 212.845C158.253 213.928 163.998 214.372 169.719 214.166C171.894 214.087 174.16 213.887 176.021 212.756C177.783 211.686 178.977 209.904 180.029 208.132C184.49 200.609 187.416 192.179 188.574 183.51C172.526 183.437 156.573 177.383 144.518 166.788ZM186.492 209.003C187.588 209.365 188.684 209.727 189.779 210.088C190.145 210.208 190.536 210.349 190.753 210.666C191.12 211.204 190.764 211.99 190.197 212.308C189.631 212.627 188.942 212.61 188.293 212.584C187.11 212.537 185.803 212.438 184.978 211.589C184.152 210.741 184.435 208.911 185.616 208.834C185.915 208.814 186.208 208.91 186.492 209.003ZM243.929 209.162C244.58 209.266 245.268 209.386 245.77 209.814C246.272 210.242 246.478 211.09 246.016 211.561C245.829 211.751 245.57 211.848 245.319 211.935C244.349 212.273 243.272 212.543 242.313 212.175C241.354 211.807 240.7 210.539 241.303 209.708C241.857 208.944 242.996 209.013 243.929 209.162ZM73.575 173.714C72.9 174.034 72.1773 174.399 71.844 175.068C71.5953 175.567 71.608 176.15 71.6267 176.706C71.879 184.292 72.1972 192.15 75.5898 198.94C76.5063 200.773 77.6716 202.538 79.3217 203.754C80.321 204.491 81.4651 205.002 82.5996 205.507C84.5679 206.384 86.541 207.26 88.5848 207.944C93.2658 209.512 98.2204 210.044 103.13 210.565C105.211 210.786 107.429 210.984 109.296 210.038C111.494 208.925 112.666 206.512 113.611 204.236C118.884 191.545 121.894 177.918 122.458 164.187C122.538 162.236 120.041 161.374 118.092 161.243C102.538 160.199 87.6622 167.037 73.575 173.714ZM124.874 163.637C124.475 164.161 124.425 164.863 124.385 165.522C123.455 181.05 119.59 196.398 113.055 210.515C119.281 207.364 123.92 201.246 125.273 194.4C125.738 192.046 125.833 189.638 125.927 187.24C126.223 179.682 126.519 172.123 126.814 164.564C126.83 164.165 126.833 163.727 126.58 163.419C126.161 162.91 125.273 163.111 124.874 163.637ZM127.453 201.459C128.242 201.501 128.985 201.83 129.753 202.021C130.441 202.192 130.648 203.171 130.264 203.767C129.88 204.362 129.14 204.621 128.439 204.72C127.706 204.823 126.918 204.784 126.288 204.396C125.658 204.008 125.249 203.199 125.501 202.503C125.77 201.759 126.662 201.416 127.453 201.459ZM244.381 199.406C245.12 199.559 245.754 200.016 246.362 200.462C246.692 200.705 247.043 200.976 247.151 201.371C247.289 201.875 246.956 202.418 246.498 202.669C246.04 202.92 245.491 202.938 244.97 202.897C244.23 202.838 243.465 202.654 242.906 202.165C242.348 201.675 242.064 200.817 242.412 200.161C242.766 199.495 243.643 199.253 244.381 199.406ZM68.6519 175.923C68.4502 176.283 68.4907 176.725 68.5378 177.135L69.6348 186.798C70.2307 192.043 71.0108 197.694 74.6763 201.491C75.2873 201.201 74.9426 200.283 74.5574 199.727C71.588 195.442 71.0163 189.994 70.5344 184.804C70.2525 181.761 69.9699 178.719 69.688 175.676C69.4042 175.376 68.8541 175.563 68.6519 175.923ZM264.109 195.718C274.179 195.967 284.25 196.215 294.32 196.464C295.861 196.502 297.407 196.54 298.932 196.769C298.613 197.87 297.166 198.078 296.02 198.067C285.921 197.971 275.789 197.346 265.745 198.396C264.886 198.486 263.959 198.574 263.214 198.139C262.469 197.702 262.135 196.506 262.82 195.981C263.175 195.708 263.662 195.707 264.109 195.718ZM236.441 193.739C236.663 193.812 236.889 193.889 237.07 194.036C237.672 194.526 237.448 195.573 236.832 196.046C236.217 196.518 235.387 196.573 234.611 196.592C233.803 196.612 232.861 196.548 232.401 195.884C231.824 195.05 232.51 193.817 233.466 193.479C234.423 193.14 235.477 193.424 236.441 193.739ZM243.804 191.704C244.742 191.806 245.657 192.135 246.444 192.656C247.047 193.054 246.927 194.053 246.379 194.523C245.83 194.993 245.049 195.059 244.327 195.033C243.598 195.006 242.836 194.896 242.246 194.466C241.656 194.036 241.305 193.206 241.621 192.548C241.981 191.798 242.975 191.615 243.804 191.704ZM142.356 168.723C141.808 176.627 141.562 184.551 141.62 192.474C141.622 192.808 141.85 193.284 142.136 193.11C142.743 186.451 143.04 179.763 143.027 173.077C143.024 171.595 142.995 170.06 142.356 168.723ZM131.591 188.999C132.455 189.064 133.217 189.566 133.921 190.071C134.138 190.226 134.362 190.392 134.482 190.63C134.733 191.122 134.433 191.756 133.961 192.044C133.489 192.332 132.905 192.354 132.353 192.329C131.098 192.27 129.519 191.587 129.659 190.338C129.756 189.476 130.727 188.933 131.591 188.999ZM245.896 183.675C246.737 184.02 247.602 184.921 247.167 185.72C246.873 186.26 246.156 186.377 245.541 186.383C244.827 186.39 244.112 186.332 243.408 186.209C242.418 186.036 242.266 184.479 243.035 183.832C243.804 183.184 244.966 183.293 245.896 183.675ZM343.888 168.21C344.235 168.79 344.241 169.504 344.237 170.18C344.207 174.962 344.178 179.745 344.149 184.528C344.145 185.109 344.067 185.813 343.539 186.056C343.084 186.267 342.523 185.971 342.269 185.538C342.016 185.104 341.993 184.578 341.984 184.077C341.91 179.807 342.386 175.435 341.177 171.34C340.818 170.122 340.388 168.603 341.327 167.75C342.062 167.084 343.379 167.358 343.888 168.21ZM220.927 167.655C217.301 169.905 213.488 172.218 209.232 172.525C208.458 172.58 208.109 173.505 207.956 174.266C207.269 177.69 206.89 181.176 206.825 184.667C206.821 184.88 206.823 185.11 206.946 185.284C207.143 185.561 207.543 185.572 207.882 185.555C211.202 185.381 214.567 185.034 217.65 183.791C220.733 182.548 223.539 180.296 224.795 177.219C226.051 174.141 225.447 170.216 222.881 168.102C222.329 167.647 221.534 167.279 220.927 167.655ZM193.172 181.118C194.337 181.424 195.501 181.73 196.666 182.036C197.101 182.15 197.585 182.302 197.794 182.701C198.039 183.17 197.753 183.777 197.31 184.067C196.866 184.357 196.315 184.412 195.786 184.459C194.949 184.534 194.087 184.606 193.284 184.359C192.481 184.111 191.74 183.463 191.649 182.628C191.557 181.792 192.359 180.904 193.172 181.118ZM31.5936 117.383C35.9528 119.149 39.2343 122.968 41.2696 127.209C43.3043 131.449 44.2311 136.124 45.039 140.757C46.3757 148.426 47.4402 156.254 46.4657 163.977C45.4906 171.701 42.2622 179.402 36.2771 184.379C40.6369 184.612 45.8426 184.44 48.2094 180.771C49.2714 179.125 51.5579 178.396 53.3765 179.124C52.2329 178.135 53.0963 176.294 53.9452 175.044C57.4223 169.918 59.8084 164.027 60.661 157.892C62.3147 145.996 58.1577 133.94 51.9902 123.634C47.9884 116.948 38.6547 114.087 31.5936 117.383ZM134.957 179.006C135.857 179.359 135.648 180.846 134.807 181.323C133.966 181.801 132.918 181.586 131.981 181.348C131.544 181.237 131.081 181.107 130.784 180.767C130.091 179.975 130.886 178.635 131.912 178.398C132.937 178.162 133.978 178.62 134.957 179.006ZM167.298 121.762C163.449 121.83 159.408 122.299 156.266 124.524C155.227 125.259 154.284 126.222 153.904 127.437C153.525 128.652 153.844 130.145 154.898 130.859C157.562 132.664 158.648 136.039 159.148 139.218C159.647 142.396 159.767 145.725 161.215 148.598C161.962 150.08 163.033 151.373 164.157 152.594C170.247 159.216 178.192 164.115 186.843 166.584C188.364 167.018 190.299 167.958 189.978 169.506C177.531 166.896 166.18 159.385 158.913 148.948C156.704 155.731 152.348 161.797 146.626 166.056C157.787 175.554 172.231 181.119 186.88 181.565C187.544 181.585 188.295 181.56 188.743 181.07C189.036 180.749 189.128 180.298 189.208 179.87C191.281 168.72 192.742 157.456 193.582 146.146C193.87 142.276 194.081 138.343 193.244 134.555C192.408 130.766 190.39 127.083 187.091 125.041C185.058 123.783 182.678 123.218 180.324 122.799C176.03 122.032 171.66 121.685 167.298 121.762ZM243.778 176.026C244.787 176.027 246.06 176.322 246.237 177.315C246.414 178.305 245.286 179.043 244.288 179.17C243.558 179.263 242.765 179.175 242.186 178.721C241.607 178.267 241.338 177.378 241.74 176.761C242.152 176.13 243.024 176.025 243.778 176.026ZM318.346 156.143C316.494 163.318 315.413 170.667 314.335 178C314.281 178.364 314.25 178.796 314.526 179.041C317.413 175.454 320.062 171.675 322.449 167.736C322.685 167.348 322.916 166.84 322.651 166.469C322.054 165.633 321.455 164.797 320.858 163.961C320.414 163.341 319.956 162.523 320.347 161.868C320.664 161.334 321.374 161.222 321.992 161.165L327.065 160.698C327.01 160.383 326.819 160.113 326.633 159.854C325.275 157.964 323.793 155.976 321.618 155.147C320.413 154.687 318.669 154.894 318.346 156.143ZM83.3996 81.9113C79.6912 82.5338 75.6744 83.6061 73.5225 86.6895C72.318 88.4157 71.8748 90.547 71.521 92.6216C70.1293 100.782 69.6946 109.105 70.2289 117.365C86.2156 109.927 104.92 108.515 121.844 113.467C123.279 113.887 125.055 115.16 124.302 116.451C111.607 111.756 97.4675 111.056 84.3717 114.474C80.1338 115.58 76.0155 117.101 71.8024 118.296C65.5401 120.071 59.0731 121.121 52.571 121.417C64.4128 137.495 65.9452 160.517 56.3386 178.023C62.3159 176.892 67.9316 174.38 73.4428 171.805C81.6704 167.96 89.863 163.905 98.6032 161.436C107.343 158.968 116.794 158.161 125.463 160.867C126.478 161.183 127.036 159.72 127.076 158.658L128.955 109.438C129.24 101.981 129.264 93.7367 124.382 88.0933C120.063 83.0995 113.019 81.5375 106.44 80.976C98.7614 80.3203 90.9999 80.6355 83.3996 81.9113ZM197.935 173.267C198.178 173.426 198.428 173.625 198.485 173.909C198.6 174.486 197.898 174.853 197.333 175.014C196.511 175.247 195.664 175.481 194.814 175.391C193.964 175.302 193.1 174.814 192.821 174.006C192.542 173.199 193.102 172.139 193.957 172.124C195.357 172.098 196.763 172.502 197.935 173.267ZM318.52 142.295C315.428 144.029 311.733 144.662 308.24 144.058C308.687 145.304 310.646 145.738 310.656 147.062C310.662 147.868 309.902 148.436 309.47 149.116C309.138 149.641 308.995 150.259 308.862 150.864C307.617 156.564 306.903 162.379 306.73 168.21C306.701 169.215 306.951 170.542 307.95 170.651C310.02 170.878 311.969 172.039 313.155 173.75C314.126 167.636 315.098 161.522 316.069 155.408C316.295 153.99 316.484 152.405 315.653 151.234C314.509 149.622 315.505 147.414 316.508 145.711L318.52 142.295ZM134.389 168.721C135.445 168.932 136.646 169.843 136.246 170.843C136 171.458 135.256 171.707 134.593 171.742C133.931 171.778 133.242 171.679 132.622 171.915C131.892 172.191 131.033 171.545 130.944 170.77C130.855 169.994 131.394 169.241 132.096 168.901C132.798 168.56 133.624 168.568 134.389 168.721ZM243.765 167.777C244.43 167.869 245.132 168.015 245.616 168.481C246.1 168.947 246.234 169.832 245.718 170.264C245.548 170.405 245.333 170.481 245.123 170.553C244.209 170.865 243.231 171.17 242.293 170.939C241.355 170.707 240.54 169.712 240.864 168.802C241.238 167.753 242.661 167.624 243.765 167.777ZM304.337 155.208C303.633 155.378 303.119 155.966 302.654 156.522L299.856 159.873C299.309 160.528 300.271 161.441 301.121 161.512C301.972 161.583 302.965 161.383 303.57 161.985C304.204 162.615 303.942 163.714 303.423 164.441C302.904 165.169 302.168 165.764 301.854 166.601C301.385 167.852 302.162 169.42 303.441 169.805C304.136 170.014 305.111 169.692 305.117 168.967C305.153 164.725 305.401 160.484 305.86 156.267C305.938 155.547 305.042 155.038 304.337 155.208ZM162.351 157.314C162.887 157.671 163.234 158.241 163.591 158.776C166.662 163.373 171.796 166.532 177.283 167.2C178.552 167.355 180.05 167.509 180.686 168.618C179.49 169.802 177.542 169.657 175.903 169.276C170.094 167.925 164.77 164.568 161.047 159.909C160.453 159.166 159.911 158.036 160.573 157.353C161.021 156.891 161.815 156.958 162.351 157.314ZM301.319 137.002C297.217 138.01 293.12 139.433 289.795 142.039C286.47 144.645 283.997 148.604 284.023 152.829C284.056 158.186 281.424 163.496 277.14 166.713L284.353 167.562C285.198 167.661 286.144 167.733 286.805 167.198C287.773 166.416 287.525 164.914 287.281 163.695C287.037 162.475 287.09 160.863 288.251 160.414C289.692 159.857 290.884 161.856 290.666 163.385C290.448 164.915 289.56 166.387 289.838 167.906C293.254 168.391 296.681 168.799 300.116 169.132C299.432 168.571 299.358 167.507 299.704 166.694C300.049 165.88 300.721 165.258 301.373 164.661C302.068 164.026 301.066 162.906 300.129 162.805C299.194 162.705 298.092 162.93 297.432 162.258C296.611 161.423 297.227 160.023 297.927 159.084C299.286 157.263 300.97 155.067 300.096 152.97C297.962 147.855 298.432 141.732 301.319 137.002ZM143.987 123.028C143.416 137.028 143.494 151.056 144.222 165.05C149.571 162.148 153.478 157.042 155.902 151.46C157.38 148.054 158.37 144.301 157.779 140.637C157.338 137.903 156.044 135.378 154.54 133.054C151.871 128.932 148.387 125.211 143.987 123.028ZM268.004 116.32C269.925 115.966 271.393 118.337 271.066 120.262C270.738 122.188 269.338 123.718 268.226 125.324C266.69 127.542 265.639 130.054 264.599 132.544C262.126 138.468 261.163 145.017 261.826 151.403C262.217 155.163 263.247 159.025 265.79 161.822C268.332 164.62 272.69 166.018 276.04 164.268C278.917 162.764 280.352 159.448 281.012 156.269C281.672 153.09 281.789 149.763 283.036 146.765C285.336 141.235 291.007 137.894 296.617 135.797C288.184 134.651 280.553 128.775 277.291 120.914C276.356 118.659 275.654 116.117 273.713 114.637C271.772 113.157 268.118 113.882 268.004 116.32ZM196.717 161.422C197.31 161.535 197.892 161.708 198.451 161.936C199.374 162.311 200.366 163.35 199.772 164.15C199.448 164.588 198.825 164.64 198.281 164.654C197.288 164.679 196.218 164.682 195.407 164.109C194.597 163.536 194.316 162.149 195.134 161.586C195.583 161.276 196.182 161.319 196.717 161.422ZM241.428 159.058C242.231 159.126 243.03 159.238 243.822 159.392C244.213 159.468 244.635 159.574 244.881 159.888C245.254 160.364 245.019 161.11 244.547 161.488C244.076 161.866 243.449 161.972 242.851 162.066C241.939 162.208 240.966 162.343 240.125 161.964C239.283 161.584 238.708 160.472 239.223 159.705C239.671 159.036 240.625 158.991 241.428 159.058ZM11.8931 154.739C11.213 154.732 10.9778 155.64 10.9984 156.32C11.0577 158.273 11.4531 160.216 12.1621 162.038C12.3595 162.239 12.5887 161.819 12.5611 161.538L11.8931 154.739ZM142.574 159.769C142.15 159.999 141.988 160.609 142.243 161.019L142.253 161.034L142.244 161.045C142.232 161.058 142.22 161.074 142.207 161.094C142.036 161.352 142.276 161.762 142.585 161.74C142.794 161.105 142.79 160.402 142.574 159.769ZM133.735 157.004C134.655 157.208 135.654 157.971 135.425 158.886C135.273 159.492 134.636 159.847 134.026 159.983C133.417 160.118 132.772 160.109 132.19 160.335C131.45 160.623 130.558 160.025 130.406 159.246C130.253 158.466 130.73 157.653 131.419 157.258C132.109 156.862 132.959 156.833 133.735 157.004ZM139.06 28.0392C139.114 70.1866 140.082 112.334 141.964 154.439L142.162 158.793L142.192 157.392C142.246 154.119 142.199 150.846 142.15 147.573C141.589 109.207 141.027 70.8423 140.464 32.4769C140.442 30.8708 140.315 29.0426 139.06 28.0392ZM199.345 150.841C199.861 150.995 200.379 151.23 200.714 151.652C201.049 152.074 201.145 152.723 200.813 153.148C200.493 153.56 199.912 153.638 199.392 153.684L197.174 153.881C196.812 153.913 196.423 153.939 196.107 153.757C195.853 153.61 195.684 153.342 195.607 153.059C195.374 152.204 195.952 151.277 196.75 150.897C197.549 150.517 198.497 150.587 199.345 150.841ZM20.7276 117.848C18.4221 120.114 17.2229 123.245 16.115 126.281C13.0277 134.742 10.0938 143.722 11.6171 152.599C12.0882 152.685 12.3127 152.045 12.3477 151.567C12.9739 143.003 14.6852 134.52 17.4275 126.383C18.4739 123.279 19.7325 120.126 22.057 117.817C22.025 117.254 21.1293 117.453 20.7276 117.848ZM304.156 136.357C303.754 136.455 303.494 136.835 303.284 137.191C301.3 140.558 300.366 144.533 300.643 148.431C300.757 150.04 301.275 151.894 302.778 152.481C304 151.308 305.222 150.134 306.444 148.961C306.638 148.775 306.836 148.582 306.944 148.335C307.212 147.718 306.828 147.029 306.476 146.456C304.735 143.622 303.427 140.03 304.878 137.037C305.058 136.665 304.558 136.258 304.156 136.357ZM329.547 132.725C329.352 132.826 329.201 132.995 329.056 133.159C325.449 137.239 321.965 141.427 318.61 145.718C317.91 146.614 317.179 147.624 317.248 148.759C317.309 149.769 318.019 150.648 318.88 151.178C319.74 151.709 320.742 151.951 321.726 152.185C321.989 152.248 322.275 152.309 322.522 152.199C322.75 152.099 322.894 151.875 323.026 151.664C325.079 148.353 327.162 144.976 328.131 141.203C328.338 140.398 329.036 139.836 329.594 139.22C330.689 138.01 331.331 136.399 331.367 134.767C331.38 134.215 331.315 133.632 330.995 133.181C330.675 132.73 330.037 132.469 329.547 132.725ZM241.695 148.874C242.192 148.997 242.74 149.185 242.963 149.646C243.356 150.459 242.434 151.306 241.571 151.573C240.903 151.779 240.158 151.851 239.517 151.571C238.876 151.291 238.39 150.584 238.535 149.899C238.794 148.685 240.489 148.575 241.695 148.874ZM134.557 147.1C134.792 147.31 135.009 147.558 135.098 147.859C135.277 148.467 134.853 149.138 134.27 149.388C133.688 149.638 133.008 149.542 132.421 149.302C131.803 149.05 131.201 148.568 131.122 147.905C131.032 147.148 131.719 146.45 132.475 146.34C133.23 146.23 133.989 146.59 134.557 147.1ZM201.41 140.435C202.014 140.681 202.076 141.593 201.66 142.094C201.245 142.595 200.551 142.761 199.903 142.816C199.254 142.87 198.583 142.847 197.977 143.084C197.046 143.449 196.033 142.323 196.255 141.348C196.476 140.373 197.524 139.767 198.523 139.721C199.522 139.674 200.485 140.058 201.41 140.435ZM240.661 138.969C241.516 139.011 242.361 139.235 243.124 139.623C243.455 139.791 243.797 140.023 243.891 140.382C244.085 141.122 243.158 141.63 242.406 141.773C241.741 141.901 241.065 141.977 240.389 142.001C239.552 142.03 238.544 141.869 238.211 141.101C237.952 140.506 238.268 139.774 238.797 139.398C239.327 139.021 240.013 138.937 240.661 138.969ZM295.761 84.3825C290.774 85.1873 285.766 85.8539 280.743 86.3822C277.104 86.7644 273.677 88.8287 271.638 91.8663C271.219 92.4906 270.93 93.4862 271.578 93.869C273.408 91.757 275.893 90.2198 278.601 89.5254C279.569 89.2773 280.628 89.142 281.541 89.5484C282.453 89.9553 283.105 91.0747 282.693 91.984C282.059 93.3811 280.036 92.9905 278.505 92.8969C274.246 92.6373 270.563 97.5109 271.976 101.537C272.968 97.6939 278.454 96.0256 281.529 98.5343C284.605 101.043 284.229 106.553 280.94 108.774C279.852 109.508 278.457 110.02 277.961 111.234C277.536 112.275 277.945 113.45 278.353 114.498C278.993 116.143 279.634 117.787 280.274 119.431C281.616 122.88 283.042 126.453 285.759 128.964C287.849 130.896 290.558 132.045 293.323 132.718C303.288 135.147 314.508 131.282 320.862 123.229C321.372 122.584 322.534 123.196 322.625 124.013C322.715 124.83 322.157 125.565 321.604 126.173C318.759 129.305 315.172 131.759 311.223 133.277C309.356 133.994 307.137 134.77 306.563 136.686C306.087 138.273 307.088 140.026 308.524 140.851C309.959 141.677 311.71 141.747 313.356 141.567C316.64 141.208 319.817 139.923 322.427 137.898C323.218 137.284 323.984 136.567 324.335 135.629C324.668 134.741 324.592 133.76 324.512 132.815L324.442 132.003C324.134 128.48 323.735 124.916 322.299 121.695C321.607 120.145 320.684 118.693 320.175 117.074C319.547 115.078 319.585 112.937 319.164 110.887C318.742 108.838 317.675 106.709 315.724 105.954C316.239 104.645 317.525 103.821 318.357 102.686C319.19 101.552 319.312 99.5704 318.002 99.0578C317.375 98.8127 316.661 99.024 316.064 99.3343C313.546 100.641 312.189 103.841 312.996 106.56C313.524 108.334 310.721 109.525 309.211 108.452C307.702 107.381 307.33 105.34 307.032 103.513C305.879 96.4302 303.563 88.7949 297.515 84.9338C296.986 84.5968 296.379 84.2829 295.761 84.3825ZM134.029 134.622C134.824 134.88 135.617 135.595 135.451 136.414C135.295 137.189 134.403 137.552 133.624 137.685C132.519 137.874 131.078 137.658 130.767 136.58C130.472 135.555 131.545 134.573 132.606 134.461C133.084 134.41 133.571 134.474 134.029 134.622ZM261.568 119.87C260.826 120.573 260.465 121.576 260.128 122.54C259.368 124.716 258.598 126.955 258.685 129.258C258.742 130.741 257.882 132.076 257.268 133.426C256.654 134.777 256.321 136.507 257.283 137.636C259.582 135.703 260.134 132.449 260.639 129.489C261.244 125.95 262.065 122.281 264.354 119.515C263.553 118.881 262.309 119.168 261.568 119.87ZM200.998 129.734C201.59 129.924 202.259 130.304 202.267 130.926C202.276 131.682 201.345 132.029 200.601 132.166C200.229 132.234 199.856 132.302 199.483 132.37C198.533 132.544 197.515 132.711 196.632 132.32C195.749 131.928 195.161 130.736 195.738 129.962C196.11 129.461 196.796 129.324 197.419 129.286C198.626 129.211 199.847 129.363 200.998 129.734ZM114.618 118.817C115.657 119.314 116.82 120.294 116.434 121.379C105.726 119.045 94.2868 120.199 84.2612 124.627C79.7498 126.619 75.5156 129.253 70.8466 130.841C69.2496 131.384 67.5053 131.801 65.892 131.309C64.2782 130.816 62.933 129.104 63.4045 127.484C63.8477 125.964 65.5407 125.241 67.041 124.733C74.4342 122.23 81.9566 120.108 89.5677 118.376C97.872 116.487 106.935 115.142 114.618 118.817ZM268.371 118.689C267.606 118.686 266.963 119.247 266.461 119.823C265.241 121.22 264.374 122.896 263.729 124.635C262.928 126.795 262.455 129.077 262.329 131.377C264.544 127.568 266.911 123.849 269.423 120.23C269.86 119.602 269.135 118.692 268.371 118.689ZM254.803 125.474C254.593 125.475 254.372 125.483 254.194 125.595C253.796 125.848 253.852 126.439 253.97 126.896C254.345 128.346 254.864 129.758 255.517 131.105C255.91 129.207 256.54 127.357 257.387 125.613C256.53 125.516 255.666 125.469 254.803 125.474ZM87.0102 120.58C80.6718 122.528 74.3334 124.476 67.9956 126.424C67.2385 126.656 66.36 127.015 66.1982 127.791C66.7138 128.543 67.6955 128.862 68.606 128.818C69.5165 128.774 70.3805 128.425 71.2246 128.08C77.6547 125.452 84.0849 122.825 90.5151 120.198C89.3667 119.877 88.1501 120.23 87.0102 120.58ZM153.895 124.135C153.554 124.726 152.846 124.976 152.315 125.403C151.784 125.831 151.472 126.751 152.033 127.139C152.891 126.279 153.75 125.419 154.608 124.56C154.431 124.34 154.173 124.186 153.895 124.135ZM220.77 123.678C225.376 124.158 230.026 124.403 234.641 124.005C235.834 123.902 237.262 123.854 237.971 124.821C237.077 125.732 235.67 125.842 234.395 125.896C229.605 126.101 224.814 126.307 220.025 126.512C219.09 126.552 217.907 126.433 217.604 125.548C217.364 124.852 217.907 124.083 218.588 123.803C219.269 123.524 220.037 123.602 220.77 123.678ZM291.997 118.644C293.112 120 293.519 121.908 293.054 123.6C292.94 124.018 292.773 124.428 292.506 124.769C291.805 125.664 290.511 125.928 289.406 125.664C288.301 125.399 287.354 124.695 286.511 123.933C285.641 123.148 284.826 122.253 284.408 121.159C283.991 120.065 284.04 118.733 284.78 117.825C285.39 117.077 286.376 116.718 287.339 116.648C289.089 116.519 290.882 117.288 291.997 118.644ZM136.687 121.796C137.127 122.152 137.053 122.891 136.677 123.314C136.301 123.737 135.728 123.917 135.179 124.055C134.531 124.216 133.849 124.343 133.199 124.188C132.548 124.033 131.939 123.529 131.859 122.866C131.743 121.903 132.75 121.15 133.708 120.999C134.753 120.834 135.863 121.131 136.687 121.796ZM286.896 118.964C286.408 119.595 286.729 120.736 287.52 120.844C288.434 120.969 289.145 121.929 288.998 122.839C288.882 123.554 289.754 124.151 290.446 123.937C291.137 123.722 291.537 122.947 291.521 122.223C291.506 121.499 291.161 120.824 290.769 120.215C290.337 119.544 289.809 118.892 289.08 118.564C288.352 118.238 287.384 118.331 286.896 118.964ZM284.463 54.0605C277.821 55.2771 271.241 58.1782 266.957 63.3978C262.673 68.6168 261.192 76.4284 264.541 82.2916C265.724 84.3638 267.531 86.1709 269.803 86.9002C272.075 87.6296 274.823 87.0928 276.338 85.2495C278.058 83.1593 281.529 85.1644 284.117 84.371C287.697 83.2734 291.417 82.6364 295.158 82.4806C296.045 82.4438 296.96 82.4384 297.787 82.7596C298.686 83.108 299.396 83.8065 300.079 84.4864C302.446 86.8453 304.862 89.2731 306.264 92.307C308.487 97.1191 307.937 102.986 310.746 107.482C311.073 104.663 311.402 101.844 311.73 99.0246C311.852 97.9782 311.988 96.892 312.553 96.0039C313.118 95.1151 314.249 94.4921 315.238 94.8513C316.984 95.4859 318.802 96.1669 320.055 97.5381C321.309 98.9093 321.772 101.195 320.568 102.609C319.403 103.975 320.724 105.95 321.342 107.636C322.413 110.556 321.154 113.892 321.996 116.887C322.693 119.366 324.708 121.218 326.633 122.93C327.196 123.431 327.852 123.965 328.603 123.896C329.231 123.84 329.735 123.371 330.165 122.909C332.723 120.151 334.475 116.655 335.152 112.955C335.426 111.462 334.907 109.287 333.403 109.491C333.814 105.909 337.106 103.47 339.04 100.427C341.126 97.145 341.618 93.1094 341.714 89.2223C341.809 85.3159 341.427 81.0702 338.824 78.1558C335.696 74.6546 329.619 74.3925 326.202 77.6124C325.35 78.4148 324.227 79.4757 323.211 78.8948C324.007 77.4663 324.804 76.0372 325.6 74.6087C326.898 72.2799 328.224 69.8672 328.487 67.2149C329.008 61.9808 325.024 57.0256 320.097 55.1847C315.17 53.3444 309.607 54.1076 304.665 55.9074C303.427 56.3591 301.963 57.3281 302.299 58.6027C302.494 59.3411 303.241 59.7867 303.625 60.4466C303.864 60.8584 303.84 60.99 303.57 61.3227C303.406 61.5243 303.112 62.1064 302.848 61.9928C300.046 58.7476 297.015 55.3502 292.908 54.1233C290.185 53.3094 287.258 53.5485 284.463 54.0605ZM252.64 120.987C252.29 120.78 251.619 120.643 251.685 121.045C251.874 122.028 252.759 122.759 253.714 123.06C254.668 123.36 255.694 123.309 256.694 123.256C257.084 123.235 257.501 123.204 257.812 122.967C258.073 122.767 258.216 122.455 258.349 122.154C258.577 121.64 258.804 121.126 259.032 120.612C257.174 119.402 254.547 122.117 252.64 120.987ZM198.994 117.629C199.775 117.688 200.551 117.824 201.305 118.036C201.959 118.219 202.71 118.602 202.742 119.28C202.785 120.172 201.624 120.537 200.734 120.614C199.827 120.692 198.921 120.771 198.015 120.849C197.355 120.906 196.608 120.935 196.123 120.484C195.47 119.878 195.734 118.703 196.44 118.161C197.145 117.619 198.107 117.563 198.994 117.629ZM220.186 117.435C224.52 118.016 228.913 118.155 233.276 117.852C233.788 117.816 234.345 117.787 234.766 118.079C235.188 118.372 235.292 119.126 234.833 119.353C234.693 119.422 234.532 119.429 234.377 119.435C229.103 119.634 223.83 119.833 218.556 120.032C218.075 120.05 217.546 120.053 217.175 119.745C216.514 119.194 216.893 118.015 217.652 117.607C218.412 117.201 219.333 117.321 220.186 117.435ZM262.268 113.14C260.584 113.231 258.871 113.386 257.316 114.04C255.761 114.692 254.367 115.921 253.902 117.542C253.808 117.871 253.773 118.276 254.025 118.507C254.222 118.687 254.518 118.689 254.784 118.679C257.581 118.569 260.366 118.153 263.073 117.44C264.418 117.085 266.04 116.23 265.859 114.85C265.763 114.124 265.136 113.556 264.444 113.315C263.752 113.075 262.999 113.1 262.268 113.14ZM68.0252 112.937C67.7571 114.358 67.6913 115.817 67.8314 117.256C68.1791 117.632 68.6368 116.898 68.6072 116.387C68.5402 115.22 68.3446 114.061 68.0252 112.937ZM158.086 111.199C167.78 111.637 177.475 112.075 187.17 112.513C188.075 112.554 189.277 112.901 189.224 113.805C188.066 114.548 186.574 114.394 185.208 114.235C176.566 113.228 167.823 113.089 159.153 113.821C158.405 113.884 157.61 113.945 156.942 113.601C156.274 113.258 155.843 112.343 156.277 111.73C156.656 111.193 157.429 111.169 158.086 111.199ZM134.576 110.182C135.003 110.247 135.448 110.358 135.757 110.658C136.466 111.345 136.029 112.649 135.177 113.147C134.325 113.644 133.269 113.574 132.286 113.489C131.208 113.396 130.858 111.778 131.567 110.96C132.275 110.141 133.507 110.02 134.576 110.182ZM168.674 106.596C184.475 107.416 200.275 108.236 216.075 109.055C216.922 109.099 218.042 109.425 217.997 110.271C215.392 110.74 212.694 110.688 210.108 110.118L212.404 112.094C211.31 112.784 210.143 113.496 208.85 113.525C207.557 113.554 206.148 112.6 206.185 111.306C206.839 111.005 207.494 110.703 208.148 110.4C195.385 109.307 182.561 108.908 169.755 109.206C169.015 109.223 168.226 109.23 167.603 108.833C166.978 108.437 166.663 107.474 167.18 106.945C167.548 106.567 168.147 106.569 168.674 106.596ZM270.984 108.709C270.415 108.74 269.932 109.118 269.49 109.479C268.967 109.908 268.444 110.336 267.921 110.764C267.373 111.212 266.78 111.747 266.748 112.454C266.73 112.838 267.022 113.294 267.397 113.208C267.501 113.184 267.592 113.12 267.679 113.059C268.925 112.18 270.172 111.3 271.418 110.422C271.672 110.243 271.944 110.039 272.026 109.74C272.177 109.19 271.554 108.678 270.984 108.709ZM290.366 104.105C290.415 105.387 289.779 106.588 289.553 107.851C289.327 109.113 289.758 110.721 291.006 111.016C291.374 111.104 291.481 111.63 291.273 111.946C291.065 112.262 290.673 112.399 290.3 112.466C289.144 112.676 287.774 112.305 287.243 111.257C286.977 110.732 286.956 110.122 286.941 109.534C286.901 107.959 286.86 106.384 286.82 104.809C286.792 103.733 286.913 102.407 287.898 101.972C289.072 101.455 290.316 102.823 290.366 104.105ZM273.179 111.249C272.951 111.355 272.796 111.602 272.798 111.853L272.742 111.868C272.868 112.148 273.323 112.192 273.501 111.941C273.679 111.689 273.486 111.275 273.179 111.249ZM270.999 103.019C270.476 103.032 269.892 103.127 269.583 103.549C269.252 104 269.386 104.661 269.725 105.106C270.065 105.55 270.565 105.836 271.032 106.144C272.998 107.441 274.568 109.329 275.482 111.5C276.105 110.68 276.727 109.862 277.349 109.043C277.813 108.431 278.303 107.732 278.205 106.97C278.135 106.42 277.765 105.957 277.373 105.565C275.71 103.901 273.35 102.959 270.999 103.019ZM70.6069 90.3496C69.8763 90.4094 69.4972 91.2299 69.2677 91.926C68.9175 92.9869 68.5674 94.0477 68.2178 95.1085C67.835 96.2677 67.4498 97.4397 67.3453 98.6557C67.2753 99.4611 67.3308 100.272 67.3858 101.079C67.5579 103.599 67.7293 106.119 67.9014 108.639C67.9346 109.126 68.3053 109.799 68.708 109.524C68.5408 103.086 69.1802 96.6288 70.6069 90.3496ZM277.289 99.6157C276.626 99.8687 275.921 100.312 275.825 101.016C275.729 101.719 276.765 102.372 277.166 101.786C277.679 101.039 278.96 101.429 279.383 102.23C279.807 103.031 279.683 103.994 279.677 104.9C279.67 105.806 279.878 106.845 280.668 107.288C280.8 106.077 280.933 104.865 281.065 103.653C281.229 102.158 281.219 100.302 279.904 99.5698C279.118 99.1314 278.131 99.2951 277.289 99.6157ZM298.589 98.931C299.665 98.9793 300.815 99.3542 301.403 100.257C301.993 101.16 301.68 102.638 300.642 102.929C299.162 103.343 297.777 101.257 296.329 101.775C295.424 102.099 294.865 103.372 293.921 103.189C293.336 103.076 293.012 102.375 293.128 101.79C293.245 101.205 293.681 100.737 294.148 100.367C295.394 99.3802 297.001 98.8604 298.589 98.931ZM133.723 97.8653C134.761 98.0332 135.777 99.1695 135.23 100.067C135.076 100.319 134.827 100.498 134.566 100.635C133.918 100.976 133.12 101.092 132.452 100.795C131.783 100.498 131.314 99.7268 131.494 99.0185C131.722 98.128 132.817 97.7186 133.723 97.8653ZM300.277 91.9568C300.991 92.6361 301.547 93.9149 300.748 94.4909C299.902 95.1007 298.889 94.0712 298.079 93.4143C297.175 92.6801 295.95 92.3559 294.801 92.5467C294.066 92.6693 293.373 92.9887 292.636 93.0955C291.899 93.2024 291.041 93.0333 290.639 92.406C290.217 91.7485 290.485 90.8175 291.066 90.294C291.646 89.7712 292.452 89.5792 293.231 89.5085C295.783 89.2749 298.419 90.1908 300.277 91.9568ZM133.688 89.8756C134.325 90.2494 134.668 91.1303 134.314 91.7781C133.845 92.6343 132.617 92.6228 131.669 92.3873C131.328 92.3028 130.969 92.1905 130.743 91.9212C130.204 91.2782 130.808 90.2699 131.561 89.8986C132.224 89.5713 133.05 89.5019 133.688 89.8756Z" fill="#00160A"/>
<path fill-rule="evenodd" clip-rule="evenodd" d="M48.152 175.989C48.239 176.231 48.3193 176.502 48.2197 176.738C48.0409 177.163 47.4595 177.18 46.9982 177.177C43.7554 177.151 40.7401 179.936 40.5101 183.171C40.4859 183.513 40.0162 183.669 39.7119 183.511C39.4082 183.353 39.2518 183.011 39.1468 182.684C38.5545 180.846 38.9361 178.786 39.8804 177.101C40.8253 175.416 42.2864 174.073 43.8743 172.973C44.4902 172.546 45.2576 172.136 45.9543 172.412C46.4144 172.594 46.7151 173.033 46.9662 173.46C47.4384 174.264 47.8357 175.112 48.152 175.989ZM46.2683 175.621C45.9827 174.748 44.824 174.434 43.9588 174.743C43.0936 175.051 42.4627 175.787 41.874 176.492C41.3155 177.161 40.7317 177.89 40.6659 178.759C42.1578 177.179 44.1406 176.068 46.2683 175.621Z" fill="#F8BC37"/>
</svg>
